<svg width="136" height="43" viewBox="0 0 136 43" fill="none" xmlns="http://www.w3.org/2000/svg">
<path d="M2.32479 43C1.04084 43 0 41.9592 0 40.6752V2.32479C0 1.04084 1.04084 0 2.32479 0H5.80074C7.08469 0 8.12553 1.04084 8.12553 2.32479V15.9747C8.12553 16.0908 8.21968 16.185 8.33581 16.185C8.4136 16.185 8.4851 16.1415 8.5224 16.0733C10.5629 12.3388 14.4807 10.4595 19.1795 10.4595C29.0598 10.4595 33.7094 18.507 33.7094 26.7297C33.7094 34.9525 27.8974 43 19.1795 43C15.4531 43 10.6003 41.8261 8.54882 38.3121C8.49436 38.2189 8.39511 38.1594 8.28709 38.1594C8.12348 38.1594 7.99085 38.292 7.99085 38.4556V40.6752C7.99085 41.9592 6.95001 43 5.66607 43H2.32479ZM11.0427 26.7297C11.0427 31.7066 13.9487 36.027 19.1795 36.027C24.4103 36.027 26.735 31.4079 26.735 26.7297C26.735 22.0515 24.4103 17.4324 19.1795 17.4324C13.9487 17.4324 11.0427 21.7528 11.0427 26.7297Z" fill="#FFCB14"/>
<path d="M51.802 10.4611C42.5489 10.4226 36.9119 17.7002 36.1195 25.2941C35.3711 32.4655 39.6503 40.1803 47.1186 42.47C48.3781 42.8562 49.5484 41.8292 49.5484 40.5118C49.5484 39.663 49.0478 38.9055 48.2949 38.5136C47.6889 38.1981 47.0781 37.8339 46.5448 37.3999C45.0716 36.201 43.9294 34.619 43.45 33.6884C41.4867 29.8771 43.0582 23.0521 43.0582 18.9381C43.0582 18.0549 43.8251 17.339 44.7711 17.339C45.717 17.339 46.4839 18.0549 46.4839 18.9381C46.4839 18.9381 46.4635 26.4009 46.4839 30.4531C46.4893 31.5142 47.1515 32.5853 48.2881 32.5853C49.4247 32.5853 50.0923 31.5143 50.0923 30.4531L50.0923 18.9381C50.0923 18.0549 50.8592 17.339 51.8052 17.339C52.7512 17.339 53.5181 18.0549 53.5181 18.9381L53.518 30.4531C53.518 31.5143 54.1856 32.5853 55.3222 32.5853C56.4589 32.5853 57.1264 31.5143 57.1264 30.4531V18.9381C57.1264 18.0549 57.8933 17.339 58.8393 17.339C59.7853 17.339 60.5522 18.0549 60.5522 18.9381C60.5522 23.0521 62.1236 29.8771 60.1603 33.6884C59.6809 34.619 58.6942 35.8348 56.7614 37.4525C56.2588 37.8731 55.8263 38.1946 55.3547 38.4826C54.6422 38.9177 54.1431 39.654 54.1431 40.4888C54.1431 41.796 55.3137 42.8085 56.5583 42.409C63.9191 40.0462 68.0756 32.405 67.335 25.2945C66.548 17.7378 61.0155 10.4994 51.802 10.4611Z" fill="#FFCB14"/>
<path d="M84.3488 10.4611C75.0958 10.4227 69.4588 17.6689 68.6663 25.2299C67.8554 32.9673 72.9481 41.3402 81.6051 42.7866C82.8735 42.9985 84.0355 41.941 83.7831 40.68C83.5855 39.6928 83.1469 38.9953 82.2304 38.9953H80.9452C79.3066 38.9953 77.9783 37.7988 77.9339 36.1699V27.0677C77.9339 24.3514 79.288 22.2196 80.8712 20.6653C82.4454 19.1199 84.2973 18.0906 85.4638 17.5336C86.9282 16.8343 88.4547 17.8761 88.4547 19.1875L88.4547 39.4249C88.4547 40.9559 89.9206 42.0683 91.2867 41.3772C97.2742 38.3482 100.546 31.5769 99.8819 25.2302C99.0948 17.7062 93.5624 10.4993 84.3488 10.4611Z" fill="#FFCB14"/>
<path d="M133.675 43C134.959 43 136 41.9592 136 40.6752V2.32479C136 1.04084 134.959 0 133.675 0H130.199C128.915 0 127.874 1.04084 127.874 2.32479V15.9747C127.874 16.0908 127.78 16.185 127.664 16.185C127.586 16.185 127.515 16.1415 127.478 16.0733C125.437 12.3388 121.519 10.4595 116.821 10.4595C106.94 10.4595 102.291 18.507 102.291 26.7297C102.291 34.9525 108.103 43 116.821 43C120.547 43 125.4 41.8261 127.451 38.3121C127.506 38.2189 127.605 38.1594 127.713 38.1594C127.877 38.1594 128.009 38.292 128.009 38.4556V40.6752C128.009 41.9592 129.05 43 130.334 43H133.675ZM124.957 26.7297C124.957 31.7066 122.051 36.027 116.821 36.027C111.59 36.027 109.265 31.4079 109.265 26.7297C109.265 22.0515 111.59 17.4324 116.821 17.4324C122.051 17.4324 124.957 21.7528 124.957 26.7297Z" fill="#FFCB14"/>
</svg>
