<svg width="32" height="30" viewBox="0 0 32 30" fill="none" xmlns="http://www.w3.org/2000/svg">
<path fill-rule="evenodd" clip-rule="evenodd" d="M32 26.2118V2.58867C32 1.69572 31.411 0.914699 30.5376 0.728904C27.4584 0.0738867 20.242 -1.0052 16 2.0801C11.0286 -0.979393 4.30233 0.0561293 1.41362 0.712384C0.562758 0.905682 0 1.6733 0 2.54584V26.2118C0 27.6033 1.39846 28.608 2.75329 28.2907C6.0566 27.5168 11.6883 26.7584 16 29.0801C20.3117 26.7584 25.9434 27.5168 29.2467 28.2907C30.6015 28.608 32 27.6033 32 26.2118ZM19.7255 10.9185L19.7224 10.9208C19.4754 11.1058 19.1751 10.9557 19.0516 10.5853C18.9294 10.2187 19.0321 9.76106 19.2763 9.57829C19.3983 9.49026 19.5213 9.40615 19.6457 9.32619C19.8747 9.17898 20.2004 8.98367 20.5909 8.78844C21.0599 8.554 21.6323 8.68073 22.2496 8.81738C22.6525 8.90658 23.0745 9 23.4994 9C23.9242 9 24.3462 8.90658 24.7491 8.81738C25.3664 8.68073 25.9389 8.554 26.4078 8.78844C26.7983 8.98367 27.124 9.17898 27.353 9.32619C27.4777 9.40633 27.602 9.48844 27.7235 9.57909C27.9705 9.76432 28.0706 10.2148 27.9471 10.5853C27.8236 10.9557 27.5231 11.1057 27.2762 10.9206L27.2591 10.9081L27.2297 10.8871L27.1985 10.865C27.1443 10.8271 27.0632 10.7718 26.9591 10.7048C26.7506 10.5708 26.4511 10.3911 26.0916 10.2114C25.6595 9.99541 25.1503 10.1392 24.6137 10.2908C24.2497 10.3936 23.873 10.4999 23.4994 10.4999C23.1257 10.4999 22.7491 10.3936 22.385 10.2908C21.8484 10.1392 21.3392 9.99541 20.9072 10.2114C20.5476 10.3911 20.2482 10.5708 20.0397 10.7048C19.934 10.7728 19.8288 10.8429 19.7255 10.9185ZM19.7224 15.9208L19.7255 15.9185C19.8288 15.8429 19.934 15.7728 20.0397 15.7048C20.2482 15.5708 20.5476 15.3911 20.9072 15.2114C21.3392 14.9954 21.8484 15.1392 22.385 15.2908C22.7491 15.3936 23.1257 15.4999 23.4994 15.4999C23.873 15.4999 24.2497 15.3936 24.6137 15.2908C25.1503 15.1392 25.6595 14.9954 26.0916 15.2114C26.4511 15.3911 26.7506 15.5708 26.9591 15.7048C27.0632 15.7718 27.1443 15.8271 27.1985 15.865C27.2256 15.884 27.246 15.8986 27.2591 15.9081L27.2762 15.9206C27.5231 16.1057 27.8236 15.9557 27.9471 15.5853C28.0706 15.2148 27.9705 14.7643 27.7235 14.5791C27.602 14.4884 27.4777 14.4063 27.353 14.3262C27.124 14.179 26.7983 13.9837 26.4078 13.7884C25.9389 13.554 25.3664 13.6807 24.7491 13.8174C24.3462 13.9066 23.9242 14 23.4994 14C23.0745 14 22.6525 13.9066 22.2496 13.8174C21.6323 13.6807 21.0599 13.554 20.5909 13.7884C20.2004 13.9837 19.8747 14.179 19.6457 14.3262C19.5213 14.4062 19.3983 14.4903 19.2763 14.5783C19.0321 14.7611 18.9294 15.2187 19.0516 15.5853C19.1751 15.9557 19.4754 16.1058 19.7224 15.9208ZM19.7255 20.9185L19.7224 20.9208C19.4754 21.1058 19.1751 20.9557 19.0516 20.5853C18.9294 20.2187 19.0321 19.7611 19.2763 19.5783C19.3983 19.4903 19.5213 19.4062 19.6457 19.3262C19.8747 19.179 20.2004 18.9837 20.5909 18.7884C21.0599 18.554 21.6323 18.6807 22.2496 18.8174C22.6525 18.9066 23.0745 19 23.4994 19C23.9242 19 24.3462 18.9066 24.7491 18.8174C25.3664 18.6807 25.9389 18.554 26.4078 18.7884C26.7983 18.9837 27.124 19.179 27.353 19.3262C27.4777 19.4063 27.602 19.4884 27.7235 19.5791C27.9705 19.7643 28.0706 20.2148 27.9471 20.5853C27.8236 20.9557 27.5231 21.1057 27.2762 20.9206L27.2591 20.9081C27.246 20.8986 27.2256 20.884 27.1985 20.865C27.1443 20.8271 27.0632 20.7718 26.9591 20.7048C26.7506 20.5708 26.4511 20.3911 26.0916 20.2114C25.6595 19.9954 25.1503 20.1392 24.6137 20.2908C24.2497 20.3936 23.873 20.4999 23.4994 20.4999C23.1257 20.4999 22.7491 20.3936 22.385 20.2908C21.8484 20.1392 21.3392 19.9954 20.9072 20.2114C20.5476 20.3911 20.2482 20.5708 20.0397 20.7048C19.934 20.7728 19.8288 20.8429 19.7255 20.9185ZM16 3.99999C16.5523 3.99999 17 4.22882 17 4.5111V26.4889C17 26.7712 16.5523 27 16 27C15.4477 27 15 26.7712 15 26.4889V4.5111C15 4.22882 15.4477 3.99999 16 3.99999Z" fill="#FAFAFA"/>
</svg>
