<svg width="180" height="159" viewBox="0 0 180 159" fill="none" xmlns="http://www.w3.org/2000/svg">
<path d="M12.3849 15.9368C6.62062 37.0623 -2.5011 109.5 1.49897 159C44.8937 174.278 143.997 174.383 176.499 162.5C185.999 114 168.085 27.377 161.809 8.63027C156.789 -6.36708 146.496 3.88186 144.404 12.6894L135.938 37.8571C135.938 37.8571 107.49 35.1715 89.2285 35.1263C70.1587 35.079 40.4464 37.8571 40.4464 37.8571L27.7181 12.6894C23.278 3.16862 17.2986 -2.0716 12.3849 15.9368Z" fill="#414141" stroke="#454545"/>
<path d="M51.0615 127C44.7721 127 39.1061 125.343 34.0633 122.029C29.0771 118.715 25.1392 114.131 22.2495 108.279C19.4165 102.426 18 95.8333 18 88.5C18 81.1667 19.4165 74.5737 22.2495 68.7212C25.1392 62.8686 29.0771 58.2853 34.0633 54.9712C39.1061 51.6571 44.7721 50 51.0615 50C57.3508 50 62.9885 51.6571 67.9747 54.9712C73.0174 58.2853 76.9554 62.8686 79.7884 68.7212C82.6781 74.5737 84.1229 81.1667 84.1229 88.5C84.1229 95.8333 82.6781 102.426 79.7884 108.279C76.9554 114.131 73.0174 118.715 67.9747 122.029C62.9885 125.343 57.3508 127 51.0615 127Z" fill="#F4F4F4"/>
<path d="M128.939 127C122.649 127 116.983 125.343 111.94 122.029C106.954 118.715 103.016 114.131 100.127 108.279C97.2936 102.426 95.8771 95.8333 95.8771 88.5C95.8771 81.1667 97.2936 74.5737 100.127 68.7212C103.016 62.8686 106.954 58.2853 111.94 54.9712C116.983 51.6571 122.649 50 128.939 50C135.228 50 140.866 51.6571 145.852 54.9712C150.895 58.2853 154.832 62.8686 157.665 68.7212C160.555 74.5737 162 81.1667 162 88.5C162 95.8333 160.555 102.426 157.665 108.279C154.832 114.131 150.895 118.715 145.852 122.029C140.866 125.343 135.228 127 128.939 127Z" fill="#F4F4F4"/>
<path fill-rule="evenodd" clip-rule="evenodd" d="M93.9602 138.878C97.5029 136.058 104.729 129.505 101.603 125.133C97.663 119.622 86.6265 119.622 82.6868 125.133C79.6081 129.439 86.5691 135.859 90.1651 138.747C89.2576 139.981 87.5871 141.46 85.2153 142.89C82.7032 144.405 79.529 145.79 75.944 146.732C68.769 148.618 60.1021 148.697 51.8743 144.7C50.8807 144.218 49.684 144.632 49.2014 145.626C48.7188 146.619 49.1331 147.816 50.1266 148.298C59.3988 152.802 69.0817 152.672 76.9609 150.601C80.9031 149.564 84.432 148.033 87.281 146.315C89.1051 145.215 90.7049 144.005 91.9603 142.756C94.7188 145.844 99.1311 149.03 104.609 151.1C111.382 153.659 119.905 154.561 129.149 151.391C130.194 151.033 130.751 149.896 130.392 148.851C130.034 147.806 128.897 147.249 127.852 147.607C119.596 150.438 112.036 149.631 106.023 147.358C100.229 145.169 95.9787 141.662 93.9602 138.878Z" fill="#F4F4F4"/>
<ellipse cx="40" cy="82.5" rx="16" ry="21.5" fill="#414141"/>
<ellipse cx="117" cy="82.5" rx="16" ry="21.5" fill="#414141"/>
</svg>
