<svg width="28" height="36" viewBox="0 0 28 36" fill="none" xmlns="http://www.w3.org/2000/svg">
<path fill-rule="evenodd" clip-rule="evenodd" d="M12.6578 0C11.8294 0 11.1578 0.671573 11.1578 1.5V11.3085C10.9823 11.4302 10.7044 11.5611 10.2814 11.5611C9.76949 11.5611 9.26946 11.3778 8.82892 11.1275V1.5C8.82892 0.671573 8.15735 0 7.32892 0C6.5005 0 5.82892 0.671573 5.82892 1.5V11.1275C5.38838 11.3778 4.88835 11.5611 4.37641 11.5611C3.95347 11.5611 3.6756 11.4302 3.5 11.3085V1.5C3.5 0.671573 2.82843 0 2 0C1.17157 0 0.5 0.671573 0.5 1.5V11.9089C0.5 12.1143 0.54835 12.3024 0.612512 12.4931C0.641349 12.5788 0.682861 12.6969 0.7376 12.8398C0.846544 13.1243 1.01071 13.5147 1.23552 13.9482C1.66887 14.7838 2.40052 15.9231 3.51981 16.7018C4.421 17.3287 5.23053 17.7552 5.82892 18.0296V34.5C5.82892 35.3284 6.5005 36 7.32892 36C8.15735 36 8.82892 35.3284 8.82892 34.5V18.0296C9.42732 17.7552 10.2368 17.3287 11.138 16.7018C12.2573 15.9231 12.989 14.7838 13.4223 13.9482C13.6471 13.5147 13.8113 13.1243 13.9202 12.8398C14.0349 12.5405 14.1578 12.2329 14.1578 11.9089V1.5C14.1578 0.671573 13.4863 0 12.6578 0Z" fill="white"/>
<path fill-rule="evenodd" clip-rule="evenodd" d="M23.8697 0.714628C25.3569 -0.781984 27.9109 0.27116 27.9109 2.38101V34.5C27.9109 35.3284 27.2393 36 26.4109 36C25.5825 36 24.9109 35.3284 24.9109 34.5V25.4405H20.9379C19.3141 25.4405 17.9977 24.1241 17.9977 22.5002V9.61826C17.9977 7.7006 18.7563 5.86069 20.1081 4.50035L23.8697 0.714628Z" fill="white"/>
</svg>
