<svg width="40" height="41" viewBox="0 0 40 41" fill="none" xmlns="http://www.w3.org/2000/svg">
<path fill-rule="evenodd" clip-rule="evenodd" d="M35.4347 8.98106L36.9918 11.6097C37.8797 13.1086 38.4001 14.8848 37.0818 16.0188C36.6959 16.3507 36.2577 16.6858 35.8171 17.0227C34.4885 18.0386 33.1384 19.071 33.1384 20.0815C33.1384 21.0992 34.5094 22.143 35.8499 23.1636C36.3903 23.575 36.9257 23.9826 37.3644 24.3833C38.4698 25.393 37.951 26.9349 37.1866 28.2253L35.5683 30.9572C34.8163 32.2267 33.7535 33.3916 32.333 33.0149C31.6589 32.8362 30.9005 32.551 30.1371 32.2639C28.4288 31.6214 26.6956 30.9696 25.828 31.4815C24.9064 32.0251 24.8228 33.6951 24.7407 35.3338C24.6989 36.1696 24.6574 36.9973 24.5054 37.6632C24.2204 38.9115 22.7509 39.082 21.4778 39.082L17.5229 39.082C16.2493 39.0821 14.7793 38.9114 14.4944 37.6626C14.3425 36.9968 14.3011 36.1695 14.2593 35.334C14.1772 33.6953 14.0936 32.0253 13.172 31.4817C12.3044 30.9698 10.5712 31.6216 8.86288 32.2641C8.09951 32.5512 7.34108 32.8364 6.66702 33.0151C5.24652 33.3917 4.18374 32.2269 3.4317 30.9574L1.81337 28.2254C1.049 26.9351 0.530169 25.3931 1.63564 24.3834C2.07429 23.9828 2.60972 23.5752 3.1501 23.1637C4.49057 22.1432 5.86157 21.0994 5.86157 20.0816C5.86157 19.0712 4.51148 18.0388 3.18287 17.0228C2.74228 16.6859 2.30405 16.3508 1.9182 16.0189C0.599942 14.885 1.12031 13.1087 2.00823 11.6098L3.56535 8.98122C4.23406 7.85235 5.15495 6.71901 6.42028 7.04537C7.09676 7.21985 7.86864 7.54227 8.64675 7.86728C10.2075 8.51922 11.7933 9.18162 12.6847 8.68163C13.5867 8.17564 13.8009 6.5182 14.0129 4.87754C14.1132 4.10118 14.213 3.32857 14.385 2.68351C14.7494 1.31692 16.3094 1.0822 17.7159 1.08211L21.2837 1.08203C22.6904 1.08206 24.2507 1.31688 24.6151 2.6838C24.787 3.32877 24.8868 4.10119 24.9871 4.87737C25.1991 6.51803 25.4133 8.17547 26.3153 8.68146C27.2067 9.18145 28.7925 8.51905 30.3533 7.86711C31.1314 7.5421 31.9032 7.21968 32.5797 7.0452C33.845 6.71884 34.7659 7.85219 35.4347 8.98106ZM19.4988 27.682C23.671 27.682 27.0533 24.2794 27.0533 20.082C27.0533 15.8846 23.671 12.482 19.4988 12.482C15.3266 12.482 11.9444 15.8846 11.9444 20.082C11.9444 24.2794 15.3266 27.682 19.4988 27.682Z" fill="#FAFAFA"/>
</svg>
