<svg width="34" height="33" viewBox="0 0 34 33" fill="none" xmlns="http://www.w3.org/2000/svg">
<path d="M1.51523 17C0.610483 17 0.170842 15.8942 0.828602 15.273L16.3134 0.648477C16.6988 0.284495 17.3012 0.284495 17.6866 0.648478L33.1714 15.273C33.8292 15.8942 33.3895 17 32.4848 17H30C29.4477 17 29 17.4477 29 18V32C29 32.5523 28.5523 33 28 33H22C21.4477 33 21 32.5523 21 32V25C21 24.4477 20.5523 24 20 24H17H14C13.4477 24 13 24.4477 13 25V32C13 32.5523 12.5523 33 12 33H6C5.44772 33 5 32.5523 5 32V18C5 17.4477 4.55228 17 4 17H1.51523Z" fill="#FAFAFA"/>
</svg>
