<svg width="98" height="51" viewBox="0 0 98 51" fill="none" xmlns="http://www.w3.org/2000/svg">
<path d="M39.5054 50.8392C45.1871 50.8392 48.999 46.164 48.999 41.1924C48.999 36.2209 45.1871 31.5457 39.5054 31.5457C33.8236 31.5457 30.0117 36.2209 30.0117 41.1924C30.0117 46.164 33.8236 50.8392 39.5054 50.8392Z" stroke="#212121" stroke-width="4"/>
<path d="M15.3061 50.8392C20.9879 50.8392 24.7998 46.164 24.7998 41.1924C24.7998 36.2209 20.9879 31.5457 15.3061 31.5457C9.62435 31.5457 5.8125 36.2209 5.8125 41.1924C5.8125 46.164 9.62435 50.8392 15.3061 50.8392Z" stroke="#212121" stroke-width="4"/>
<path d="M64.0054 50.8392C69.6871 50.8392 73.499 46.164 73.499 41.1924C73.499 36.2209 69.6871 31.5457 64.0054 31.5457C58.3236 31.5457 54.5117 36.2209 54.5117 41.1924C54.5117 46.164 58.3236 50.8392 64.0054 50.8392Z" stroke="#212121" stroke-width="4"/>
<path d="M88.5054 50.8392C94.1871 50.8392 97.999 46.164 97.999 41.1924C97.999 36.2209 94.1871 31.5457 88.5054 31.5457C82.8236 31.5457 79.0117 36.2209 79.0117 41.1924C79.0117 46.164 82.8236 50.8392 88.5054 50.8392Z" stroke="#212121" stroke-width="4"/>
<path d="M5.66556 17.7201V12.2908C5.66556 12.2908 4.28745 13.5158 2.52653 13.5158C0.765616 13.5158 0 12.2908 0 12.2908C0 12.2908 0.765616 14.8523 2.52653 16.0773C4.28745 17.3023 5.66556 17.7201 5.66556 17.7201Z" fill="#212121"/>
<path d="M5.66556 12.2908V17.7201C5.66556 17.7201 7.04367 17.3023 8.80458 16.0773C10.5655 14.8523 11.3311 12.2908 11.3311 12.2908C11.3311 12.2908 10.5655 13.5158 8.80458 13.5158C7.04367 13.5158 5.66556 12.2908 5.66556 12.2908Z" fill="#212121"/>
<path d="M5.66556 50.8363V17.7201M5.66556 1.22437V12.2908M5.66556 17.7201V12.2908M5.66556 17.7201C5.66556 17.7201 7.04367 17.3023 8.80458 16.0773C10.5655 14.8523 11.3311 12.2908 11.3311 12.2908M5.66556 17.7201C5.66556 17.7201 4.28745 17.3023 2.52653 16.0773C0.765616 14.8523 0 12.2908 0 12.2908M11.3311 12.2908V1.22437M11.3311 12.2908C11.3311 12.2908 10.5655 13.5158 8.80458 13.5158C7.04367 13.5158 5.66556 12.2908 5.66556 12.2908M0 12.2908V1.22437M0 12.2908C0 12.2908 0.765616 13.5158 2.52653 13.5158C4.28745 13.5158 5.66556 12.2908 5.66556 12.2908" stroke="#212121" stroke-width="4" stroke-linecap="round"/>
<path d="M98.0023 50.8369V2.22806C98.0023 1.40814 97.0097 0.998877 96.4318 1.58049L92.4325 5.60535C91.2923 6.75285 90.6523 8.30484 90.6523 9.92251V23.6182C90.6523 24.4639 91.3379 25.1495 92.1836 25.1495H94.4804" stroke="#212121" stroke-width="4" stroke-linecap="round"/>
</svg>
