<svg width="136" height="90" viewBox="0 0 136 90" fill="none" xmlns="http://www.w3.org/2000/svg">
<g id="logo_container">
<g id="logo-black">
<path d="M2 66C0.89543 66 0 65.1046 0 64V25C0 23.8954 0.895431 23 2 23H6.19558C7.30014 23 8.19558 23.8954 8.19558 25V38.9726C8.19558 39.0899 8.29068 39.185 8.40799 39.185C8.4863 39.185 8.55832 39.1414 8.59612 39.0728C10.6543 35.3387 14.6057 33.4595 19.3448 33.4595C29.3103 33.4595 34 41.507 34 49.7297C34 57.9525 28.1379 66 19.3448 66C15.5865 66 10.6922 64.8262 8.62285 61.3127C8.56767 61.219 8.46772 61.1594 8.35899 61.1594C8.19372 61.1594 8.05974 61.2934 8.05974 61.4586V64C8.05974 65.1046 7.16431 66 6.05974 66H2ZM11.1379 49.7297C11.1379 54.7066 14.069 59.027 19.3448 59.027C24.6207 59.027 26.9655 54.4079 26.9655 49.7297C26.9655 45.0515 24.6207 40.4324 19.3448 40.4324C14.069 40.4324 11.1379 44.7528 11.1379 49.7297Z" fill="#212121"/>
<path d="M51.5736 33.0002C42.434 32.9611 36.866 40.3415 36.0833 48.0426C35.3389 55.3667 39.631 63.2498 47.1048 65.5096C48.2669 65.8609 49.3477 64.9169 49.3477 63.7029V63.329C49.3477 62.556 48.8966 61.8631 48.2124 61.5033C47.5804 61.1709 46.9378 60.7847 46.3808 60.3193C44.9257 59.1035 43.7975 57.4992 43.324 56.5554C41.3848 52.6903 42.937 45.769 42.937 41.5969C42.937 40.7012 43.6944 39.9751 44.6288 39.9751C45.5632 39.9751 46.3207 40.7012 46.3207 41.5969C46.3207 41.5969 46.3006 49.165 46.3207 53.2744C46.326 54.3506 46.9801 55.4368 48.1028 55.4368C49.2255 55.4368 49.8849 54.3506 49.8849 53.2744L49.8849 41.5969C49.8849 40.7012 50.6424 39.9751 51.5768 39.9751C52.5112 39.9751 53.2687 40.7012 53.2687 41.5969L53.2686 53.2744C53.2686 54.3506 53.928 55.4368 55.0507 55.4368C56.1734 55.4368 56.8328 54.3506 56.8328 53.2744V41.5969C56.8328 40.7012 57.5903 39.9751 58.5247 39.9751C59.4591 39.9751 60.2165 40.7012 60.2165 41.5969C60.2165 45.769 61.7688 52.6903 59.8295 56.5554C59.356 57.4992 58.3814 58.7321 56.4723 60.3726C55.9473 60.8237 55.4998 61.1623 55.0023 61.4672C54.3432 61.8711 53.8861 62.556 53.8861 63.329V63.6397C53.8861 64.8648 54.9855 65.8112 56.1523 65.4379C63.4972 63.0876 67.6518 55.2932 66.9163 48.043C66.1389 40.3796 60.6742 33.039 51.5736 33.0002Z" fill="#212121"/>
<path d="M84.5736 33.0002C75.434 32.9613 69.866 40.3097 69.0833 47.9775C68.2732 55.9132 73.4275 64.5081 82.1559 65.8293C83.2506 65.995 84.2212 65.0939 84.0723 63.9969C83.9118 62.814 83.489 61.9372 82.4811 61.9372H81.2116C79.5931 61.9372 78.2811 60.7238 78.2372 59.072V49.8412C78.2372 47.0866 79.5748 44.9247 81.1386 43.3485C82.6935 41.7812 84.5227 40.7374 85.6749 40.1725C87.1214 39.4633 88.6291 40.5199 88.6291 41.8498L88.6291 62.8219C88.6291 64.1446 89.8984 65.1018 91.0877 64.5231C97.2168 61.5411 100.584 54.5359 99.9163 47.9778C99.1389 40.3476 93.6742 33.0389 84.5736 33.0002Z" fill="#212121"/>
<path d="M134 66C135.105 66 136 65.1046 136 64V25C136 23.8954 135.105 23 134 23H129.804C128.7 23 127.804 23.8954 127.804 25V38.9726C127.804 39.0899 127.709 39.185 127.592 39.185C127.514 39.185 127.442 39.1414 127.404 39.0728C125.346 35.3387 121.394 33.4595 116.655 33.4595C106.69 33.4595 102 41.507 102 49.7297C102 57.9525 107.862 66 116.655 66C120.413 66 125.308 64.8262 127.377 61.3127C127.432 61.219 127.532 61.1594 127.641 61.1594C127.806 61.1594 127.94 61.2934 127.94 61.4586V64C127.94 65.1046 128.836 66 129.94 66H134ZM124.862 49.7297C124.862 54.7066 121.931 59.027 116.655 59.027C111.379 59.027 109.034 54.4079 109.034 49.7297C109.034 45.0515 111.379 40.4324 116.655 40.4324C121.931 40.4324 124.862 44.7528 124.862 49.7297Z" fill="#212121"/>
</g>
</g>
</svg>
