<svg width="40" height="40" viewBox="0 0 40 40" fill="none" xmlns="http://www.w3.org/2000/svg">
<path fill-rule="evenodd" clip-rule="evenodd" d="M16.5936 2.90325C17.8744 2.08479 18.5529 2 20 2C21.4471 2 22.1256 2.08479 23.4064 2.90325C24.9484 3.88866 25.3333 5.47793 25.3333 7C25.3333 8.5244 24.9491 10.1048 23.4564 11.1193C22.1742 11.9908 21.4922 12.1111 20 12.1111C18.5078 12.1111 17.8258 11.9908 16.5436 11.1193C15.0509 10.1048 14.6667 8.5244 14.6667 7C14.6667 5.47793 15.0516 3.88866 16.5936 2.90325ZM3 14.6667C3 13.5621 3.94518 12.6667 5.11111 12.6667H34.8889C36.0548 12.6667 37 13.5621 37 14.6667C37 15.7712 36.0548 16.6667 34.8889 16.6667H26.085V36C26.085 37.1046 25.1398 38 23.9739 38C22.8079 38 21.8627 37.1046 21.8627 36V29.1688C21.8191 29.0649 21.7472 28.93 21.6376 28.7993C21.4636 28.5917 21.0698 28.2222 20 28.2222C18.9302 28.2222 18.5364 28.5917 18.3624 28.7993C18.2528 28.93 18.1809 29.0649 18.1373 29.1688V36C18.1373 37.1046 17.1921 38 16.0261 38C14.8602 38 13.915 37.1046 13.915 36V16.6667H5.11111C3.94518 16.6667 3 15.7712 3 14.6667Z" fill="#FAFAFA"/>
</svg>
