<svg width="58" height="58" viewBox="0 0 58 58" fill="none" xmlns="http://www.w3.org/2000/svg">
<g filter="url(#filter0_d_2925_6354)">
<path d="M5.00551 28.5013C5.2782 15.4928 15.6484 5.16411 28.7011 5.0019C41.9204 4.83762 52.7209 15.3267 52.995 28.5013C53.2814 42.2698 41.2937 53.8133 27.5043 52.955C14.5299 52.1474 4.73395 41.456 5.00551 28.5013Z" fill="#FFF8C1"/>
</g>
<path d="M27.1472 41.3312C27.1472 42.2529 27.8943 43 28.8159 43C29.7376 43 30.4847 42.2529 30.4847 41.3312V30.8505L41.3395 30.7967C42.2611 30.7921 43.0045 30.0413 43 29.1197C42.9954 28.1981 42.2446 27.4547 41.323 27.4592L30.4847 27.5129V15.6688C30.4847 14.7471 29.7376 14 28.8159 14C27.8943 14 27.1472 14.7471 27.1472 15.6688V27.5295L15.6605 27.5864C14.7389 27.591 13.9955 28.3418 14 29.2634C14.0046 30.1851 14.7554 30.9285 15.677 30.9239L27.1472 30.867V41.3312Z" fill="#2A2712"/>
<defs>
<filter id="filter0_d_2925_6354" x="0.0539632" y="0.0539632" width="57.8921" height="57.8921" filterUnits="userSpaceOnUse" color-interpolation-filters="sRGB">
<feFlood flood-opacity="0" result="BackgroundImageFix"/>
<feColorMatrix in="SourceAlpha" type="matrix" values="0 0 0 0 0 0 0 0 0 0 0 0 0 0 0 0 0 0 127 0" result="hardAlpha"/>
<feOffset/>
<feGaussianBlur stdDeviation="2.47302"/>
<feComposite in2="hardAlpha" operator="out"/>
<feColorMatrix type="matrix" values="0 0 0 0 0 0 0 0 0 0 0 0 0 0 0 0 0 0 0.25 0"/>
<feBlend mode="normal" in2="BackgroundImageFix" result="effect1_dropShadow_2925_6354"/>
<feBlend mode="normal" in="SourceGraphic" in2="effect1_dropShadow_2925_6354" result="shape"/>
</filter>
</defs>
</svg>
