<svg width="35" height="37" viewBox="0 0 35 37" fill="none" xmlns="http://www.w3.org/2000/svg">
<path d="M9.8 34C9.8 35.6569 8.45685 37 6.8 37H3C1.34315 37 0 35.6569 0 34V15.3333C0 13.6765 1.34315 12.3333 3 12.3333H6.8C8.45685 12.3333 9.8 13.6765 9.8 15.3333V34ZM22.4 3C22.4 1.34315 21.0569 0 19.4 0H15.6C13.9431 0 12.6 1.34315 12.6 3V34C12.6 35.6569 13.9431 37 15.6 37H19.4C21.0569 37 22.4 35.6569 22.4 34V3ZM35 19.4444C35 17.7876 33.6569 16.4444 32 16.4444H28.2C26.5431 16.4444 25.2 17.7876 25.2 19.4444V34C25.2 35.6569 26.5431 37 28.2 37H32C33.6569 37 35 35.6569 35 34V19.4444Z" fill="#FAFAFA"/>
</svg>
