<svg width="50" height="88" viewBox="0 0 50 88" fill="none" xmlns="http://www.w3.org/2000/svg">
<path d="M8.60025 59.742C8.72259 60.7456 9.57458 61.5 10.5855 61.5H40.3017C41.3242 61.5 42.182 60.7288 42.2905 59.7121L43.7465 46.0622H6.93255L8.60025 59.742Z" fill="#7DADFF"/>
<path d="M6.93255 46.0622L8.60025 59.742C8.72259 60.7456 9.57458 61.5 10.5855 61.5H40.3017C41.3242 61.5 42.182 60.7288 42.2905 59.7121L43.7465 46.0622M6.93255 46.0622L1.77332 3.74203C1.62804 2.5503 2.55807 1.5 3.75863 1.5L46.2753 1.5C47.4638 1.5 48.3901 2.53033 48.264 3.71214L43.7465 46.0622M6.93255 46.0622H43.7465" stroke="#7DADFF" stroke-width="3"/>
<path d="M7.35547 79.1611V80.3506H0.533203V79.1611H7.35547ZM4.58008 76.2559V83.502H3.31543V76.2559H4.58008ZM13.8428 79.7627L12.8311 79.5029L13.3301 74.5469H18.4365V75.7158H14.4033L14.1025 78.4229C14.2848 78.318 14.515 78.2201 14.793 78.1289C15.0755 78.0378 15.3991 77.9922 15.7637 77.9922C16.224 77.9922 16.6364 78.0719 17.001 78.2314C17.3656 78.3864 17.6755 78.6097 17.9307 78.9014C18.1904 79.193 18.3887 79.5439 18.5254 79.9541C18.6621 80.3643 18.7305 80.8223 18.7305 81.3281C18.7305 81.8066 18.6644 82.2464 18.5322 82.6475C18.4046 83.0485 18.2109 83.3994 17.9512 83.7002C17.6914 83.9964 17.3633 84.2266 16.9668 84.3906C16.5749 84.5547 16.1123 84.6367 15.5791 84.6367C15.1781 84.6367 14.7975 84.582 14.4375 84.4727C14.082 84.3587 13.763 84.1878 13.4805 83.96C13.2025 83.7275 12.9746 83.4404 12.7969 83.0986C12.6237 82.7523 12.5143 82.3467 12.4688 81.8818H13.6719C13.7266 82.2555 13.8359 82.57 14 82.8252C14.1641 83.0804 14.3783 83.2741 14.6426 83.4062C14.9115 83.5339 15.2236 83.5977 15.5791 83.5977C15.8799 83.5977 16.1465 83.5452 16.3789 83.4404C16.6113 83.3356 16.8073 83.1852 16.9668 82.9893C17.1263 82.7933 17.2471 82.5563 17.3291 82.2783C17.4157 82.0003 17.459 81.6882 17.459 81.3418C17.459 81.0273 17.4157 80.7357 17.3291 80.4668C17.2425 80.1979 17.1126 79.9632 16.9395 79.7627C16.7708 79.5622 16.5635 79.4072 16.3174 79.2979C16.0713 79.1839 15.7887 79.127 15.4697 79.127C15.0459 79.127 14.7246 79.1839 14.5059 79.2979C14.2917 79.4118 14.0706 79.5667 13.8428 79.7627ZM26.3662 78.7305V80.248C26.3662 81.0638 26.2933 81.752 26.1475 82.3125C26.0016 82.873 25.792 83.3242 25.5186 83.666C25.2451 84.0078 24.9147 84.2562 24.5273 84.4111C24.1445 84.5615 23.7116 84.6367 23.2285 84.6367C22.8457 84.6367 22.4925 84.5889 22.1689 84.4932C21.8454 84.3975 21.5537 84.2448 21.2939 84.0352C21.0387 83.821 20.82 83.543 20.6377 83.2012C20.4554 82.8594 20.3164 82.4447 20.2207 81.957C20.125 81.4694 20.0771 80.8997 20.0771 80.248V78.7305C20.0771 77.9147 20.1501 77.2311 20.2959 76.6797C20.4463 76.1283 20.6582 75.6862 20.9316 75.3535C21.2051 75.0163 21.5332 74.7747 21.916 74.6289C22.3034 74.4831 22.7363 74.4102 23.2148 74.4102C23.6022 74.4102 23.9577 74.458 24.2812 74.5537C24.6094 74.6449 24.901 74.793 25.1562 74.998C25.4115 75.1986 25.6279 75.4674 25.8057 75.8047C25.988 76.1374 26.127 76.5452 26.2227 77.0283C26.3184 77.5114 26.3662 78.0788 26.3662 78.7305ZM25.0947 80.4531V78.5186C25.0947 78.0719 25.0674 77.68 25.0127 77.3428C24.9626 77.001 24.8874 76.7093 24.7871 76.4678C24.6868 76.2262 24.5592 76.0303 24.4043 75.8799C24.2539 75.7295 24.0785 75.6201 23.8779 75.5518C23.682 75.4788 23.4609 75.4424 23.2148 75.4424C22.9141 75.4424 22.6475 75.4993 22.415 75.6133C22.1826 75.7227 21.9867 75.8981 21.8271 76.1396C21.6722 76.3812 21.5537 76.6979 21.4717 77.0898C21.3896 77.4818 21.3486 77.958 21.3486 78.5186V80.4531C21.3486 80.8997 21.3737 81.2939 21.4238 81.6357C21.4785 81.9775 21.5583 82.2738 21.6631 82.5244C21.7679 82.7705 21.8955 82.9733 22.0459 83.1328C22.1963 83.2923 22.3695 83.4108 22.5654 83.4883C22.766 83.5612 22.987 83.5977 23.2285 83.5977C23.5384 83.5977 23.8096 83.5384 24.042 83.4199C24.2744 83.3014 24.4681 83.1169 24.623 82.8662C24.7826 82.611 24.901 82.2852 24.9785 81.8887C25.056 81.4876 25.0947 81.0091 25.0947 80.4531ZM35.8545 82.8184L38.3701 77.1035H39.5869L36.292 84.5H35.417L32.1357 77.1035H33.3525L35.8545 82.8184ZM32.9834 77.1035V84.5H31.7188V77.1035H32.9834ZM38.6846 84.5V77.1035H39.9561V84.5H38.6846ZM46.9355 77.1035V78.1494H43.3604V77.1035H46.9355ZM48.0498 77.1035V84.5H46.7852V77.1035H48.0498ZM43.0527 77.1035H44.3242L44.1328 80.6719C44.1009 81.2233 44.0485 81.7109 43.9756 82.1348C43.9072 82.554 43.8115 82.9141 43.6885 83.2148C43.57 83.5156 43.4196 83.7617 43.2373 83.9531C43.0596 84.14 42.8454 84.279 42.5947 84.3701C42.3441 84.4567 42.0547 84.5 41.7266 84.5H41.3301V83.3857L41.6035 83.3652C41.7995 83.3516 41.9658 83.306 42.1025 83.2285C42.2438 83.151 42.3623 83.0371 42.458 82.8867C42.5537 82.7318 42.6312 82.5335 42.6904 82.292C42.7542 82.0505 42.8021 81.7633 42.834 81.4307C42.8704 81.098 42.8978 80.7106 42.916 80.2686L43.0527 77.1035Z" fill="#565656"/>
</svg>
