<svg width="50" height="63" viewBox="0 0 50 63" fill="none" xmlns="http://www.w3.org/2000/svg">
<path d="M8.60025 59.742C8.72259 60.7456 9.57458 61.5 10.5855 61.5H40.3017C41.3242 61.5 42.182 60.7288 42.2905 59.7121L43.7465 46.0622H6.93255L8.60025 59.742Z" fill="#7DADFF"/>
<path d="M6.93255 46.0622L8.60025 59.742C8.72259 60.7456 9.57458 61.5 10.5855 61.5H40.3017C41.3242 61.5 42.182 60.7288 42.2905 59.7121L43.7465 46.0622M6.93255 46.0622L1.77332 3.74203C1.62804 2.5503 2.55807 1.5 3.75863 1.5L46.2753 1.5C47.4638 1.5 48.3901 2.53033 48.264 3.71214L43.7465 46.0622M6.93255 46.0622H43.7465" stroke="#7DADFF" stroke-width="3"/>
</svg>
