<svg width="51" height="63" viewBox="0 0 51 63" fill="none" xmlns="http://www.w3.org/2000/svg">
<path d="M9.10025 59.742C9.22259 60.7456 10.0746 61.5 11.0855 61.5H40.8017C41.8242 61.5 42.682 60.7288 42.7905 59.7121L45.4349 34.9217H6.07441L7.43255 46.0622L9.10025 59.742Z" fill="#7DADFF"/>
<path d="M6.07441 34.9217L7.43255 46.0622L9.10025 59.742C9.22259 60.7456 10.0746 61.5 11.0855 61.5H40.8017C41.8242 61.5 42.682 60.7288 42.7905 59.7121L45.4349 34.9217M6.07441 34.9217L4.71628 23.7811L2.27332 3.74203C2.12804 2.5503 3.05807 1.5 4.25863 1.5L46.7753 1.5C47.9638 1.5 48.8901 2.53033 48.764 3.71214L46.6233 23.7811L45.4349 34.9217M6.07441 34.9217H45.4349" stroke="#7DADFF" stroke-width="3"/>
</svg>
