<svg width="57" height="88" viewBox="0 0 57 88" fill="none" xmlns="http://www.w3.org/2000/svg">
<path d="M12.1002 59.742C12.2226 60.7456 13.0746 61.5 14.0855 61.5H43.8017C44.8242 61.5 45.682 60.7288 45.7905 59.7121L48.4349 34.9217H9.07441L10.4326 46.0622L12.1002 59.742Z" fill="#7DADFF"/>
<path d="M9.07441 34.9217L10.4326 46.0622L12.1002 59.742C12.2226 60.7456 13.0746 61.5 14.0855 61.5H43.8017C44.8242 61.5 45.682 60.7288 45.7905 59.7121L48.4349 34.9217M9.07441 34.9217L7.71628 23.7811L5.27332 3.74203C5.12804 2.5503 6.05807 1.5 7.25863 1.5L49.7753 1.5C50.9638 1.5 51.8901 2.53033 51.764 3.71214L49.6233 23.7811L48.4349 34.9217M9.07441 34.9217H48.4349" stroke="#7DADFF" stroke-width="3"/>
<path d="M7.35547 79.1611V80.3506H0.533203V79.1611H7.35547ZM4.58008 76.2559V83.502H3.31543V76.2559H4.58008ZM16.3994 74.4922V84.5H15.1348V76.0713L12.585 77.001V75.8594L16.2012 74.4922H16.3994ZM26.3662 78.7305V80.248C26.3662 81.0638 26.2933 81.752 26.1475 82.3125C26.0016 82.873 25.792 83.3242 25.5186 83.666C25.2451 84.0078 24.9147 84.2562 24.5273 84.4111C24.1445 84.5615 23.7116 84.6367 23.2285 84.6367C22.8457 84.6367 22.4925 84.5889 22.1689 84.4932C21.8454 84.3975 21.5537 84.2448 21.2939 84.0352C21.0387 83.821 20.82 83.543 20.6377 83.2012C20.4554 82.8594 20.3164 82.4447 20.2207 81.957C20.125 81.4694 20.0771 80.8997 20.0771 80.248V78.7305C20.0771 77.9147 20.1501 77.2311 20.2959 76.6797C20.4463 76.1283 20.6582 75.6862 20.9316 75.3535C21.2051 75.0163 21.5332 74.7747 21.916 74.6289C22.3034 74.4831 22.7363 74.4102 23.2148 74.4102C23.6022 74.4102 23.9577 74.458 24.2812 74.5537C24.6094 74.6449 24.901 74.793 25.1562 74.998C25.4115 75.1986 25.6279 75.4674 25.8057 75.8047C25.988 76.1374 26.127 76.5452 26.2227 77.0283C26.3184 77.5114 26.3662 78.0788 26.3662 78.7305ZM25.0947 80.4531V78.5186C25.0947 78.0719 25.0674 77.68 25.0127 77.3428C24.9626 77.001 24.8874 76.7093 24.7871 76.4678C24.6868 76.2262 24.5592 76.0303 24.4043 75.8799C24.2539 75.7295 24.0785 75.6201 23.8779 75.5518C23.682 75.4788 23.4609 75.4424 23.2148 75.4424C22.9141 75.4424 22.6475 75.4993 22.415 75.6133C22.1826 75.7227 21.9867 75.8981 21.8271 76.1396C21.6722 76.3812 21.5537 76.6979 21.4717 77.0898C21.3896 77.4818 21.3486 77.958 21.3486 78.5186V80.4531C21.3486 80.8997 21.3737 81.2939 21.4238 81.6357C21.4785 81.9775 21.5583 82.2738 21.6631 82.5244C21.7679 82.7705 21.8955 82.9733 22.0459 83.1328C22.1963 83.2923 22.3695 83.4108 22.5654 83.4883C22.766 83.5612 22.987 83.5977 23.2285 83.5977C23.5384 83.5977 23.8096 83.5384 24.042 83.4199C24.2744 83.3014 24.4681 83.1169 24.623 82.8662C24.7826 82.611 24.901 82.2852 24.9785 81.8887C25.056 81.4876 25.0947 81.0091 25.0947 80.4531ZM34.2412 78.7305V80.248C34.2412 81.0638 34.1683 81.752 34.0225 82.3125C33.8766 82.873 33.667 83.3242 33.3936 83.666C33.1201 84.0078 32.7897 84.2562 32.4023 84.4111C32.0195 84.5615 31.5866 84.6367 31.1035 84.6367C30.7207 84.6367 30.3675 84.5889 30.0439 84.4932C29.7204 84.3975 29.4287 84.2448 29.1689 84.0352C28.9137 83.821 28.695 83.543 28.5127 83.2012C28.3304 82.8594 28.1914 82.4447 28.0957 81.957C28 81.4694 27.9521 80.8997 27.9521 80.248V78.7305C27.9521 77.9147 28.0251 77.2311 28.1709 76.6797C28.3213 76.1283 28.5332 75.6862 28.8066 75.3535C29.0801 75.0163 29.4082 74.7747 29.791 74.6289C30.1784 74.4831 30.6113 74.4102 31.0898 74.4102C31.4772 74.4102 31.8327 74.458 32.1562 74.5537C32.4844 74.6449 32.776 74.793 33.0312 74.998C33.2865 75.1986 33.5029 75.4674 33.6807 75.8047C33.863 76.1374 34.002 76.5452 34.0977 77.0283C34.1934 77.5114 34.2412 78.0788 34.2412 78.7305ZM32.9697 80.4531V78.5186C32.9697 78.0719 32.9424 77.68 32.8877 77.3428C32.8376 77.001 32.7624 76.7093 32.6621 76.4678C32.5618 76.2262 32.4342 76.0303 32.2793 75.8799C32.1289 75.7295 31.9535 75.6201 31.7529 75.5518C31.557 75.4788 31.3359 75.4424 31.0898 75.4424C30.7891 75.4424 30.5225 75.4993 30.29 75.6133C30.0576 75.7227 29.8617 75.8981 29.7021 76.1396C29.5472 76.3812 29.4287 76.6979 29.3467 77.0898C29.2646 77.4818 29.2236 77.958 29.2236 78.5186V80.4531C29.2236 80.8997 29.2487 81.2939 29.2988 81.6357C29.3535 81.9775 29.4333 82.2738 29.5381 82.5244C29.6429 82.7705 29.7705 82.9733 29.9209 83.1328C30.0713 83.2923 30.2445 83.4108 30.4404 83.4883C30.641 83.5612 30.862 83.5977 31.1035 83.5977C31.4134 83.5977 31.6846 83.5384 31.917 83.4199C32.1494 83.3014 32.3431 83.1169 32.498 82.8662C32.6576 82.611 32.776 82.2852 32.8535 81.8887C32.931 81.4876 32.9697 81.0091 32.9697 80.4531ZM43.7295 82.8184L46.2451 77.1035H47.4619L44.167 84.5H43.292L40.0107 77.1035H41.2275L43.7295 82.8184ZM40.8584 77.1035V84.5H39.5938V77.1035H40.8584ZM46.5596 84.5V77.1035H47.8311V84.5H46.5596ZM54.8105 77.1035V78.1494H51.2354V77.1035H54.8105ZM55.9248 77.1035V84.5H54.6602V77.1035H55.9248ZM50.9277 77.1035H52.1992L52.0078 80.6719C51.9759 81.2233 51.9235 81.7109 51.8506 82.1348C51.7822 82.554 51.6865 82.9141 51.5635 83.2148C51.445 83.5156 51.2946 83.7617 51.1123 83.9531C50.9346 84.14 50.7204 84.279 50.4697 84.3701C50.2191 84.4567 49.9297 84.5 49.6016 84.5H49.2051V83.3857L49.4785 83.3652C49.6745 83.3516 49.8408 83.306 49.9775 83.2285C50.1188 83.151 50.2373 83.0371 50.333 82.8867C50.4287 82.7318 50.5062 82.5335 50.5654 82.292C50.6292 82.0505 50.6771 81.7633 50.709 81.4307C50.7454 81.098 50.7728 80.7106 50.791 80.2686L50.9277 77.1035Z" fill="#565656"/>
</svg>
