<svg width="48" height="48" viewBox="0 0 48 48" fill="none" xmlns="http://www.w3.org/2000/svg">
<path d="M0.00551077 23.5013C0.278198 10.4928 10.6484 0.164115 23.7011 0.00190369C36.9204 -0.162379 47.7209 10.3267 47.995 23.5013C48.2814 37.2698 36.2937 48.8133 22.5043 47.955C9.52989 47.1474 -0.266049 36.456 0.00551077 23.5013Z" fill="#FFF8C1"/>
<path d="M36.4937 25.6027L37.4706 26.741C38.8431 25.5631 38.8432 23.4369 37.4706 22.259L25.7646 12.2132C23.8464 10.5671 20.899 11.941 20.899 14.4542V17.1935H11.7237C10.4918 17.1935 9.5 18.1939 9.5 19.4192V29.5794C9.5 30.8047 10.4918 31.8051 11.7237 31.8051H20.899V34.5457C20.899 37.059 23.8464 38.433 25.7646 36.7868L37.4706 26.741L36.4937 25.6027Z" stroke="#212121" stroke-width="3"/>
</svg>
